<mxfile host="app.diagrams.net" modified="2023-12-10T11:33:51.321Z" agent="Mozilla/5.0 (Windows NT 10.0; Win64; x64; rv:120.0) Gecko/20100101 Firefox/120.0" version="22.1.7" etag="GGGZM-oLU3658gjupuVt" type="github">
  <diagram name="Page-1" id="rzM1EUC0Q0_aiwP67-dR">
    <mxGraphModel>
      <root>
        <mxCell id="0" />
        <mxCell id="1" parent="0" />
      </root>
    </mxGraphModel>
  </diagram>
</mxfile>
